<svg width="80" height="80" viewBox="0 0 80 80" fill="none" xmlns="http://www.w3.org/2000/svg">
<rect width="80" height="80" rx="8" fill="#1E1E1E"/>
<mask id="path-2-inside-1_1065_22281" fill="white">
<path fill-rule="evenodd" clip-rule="evenodd" d="M55 59.1348C66.2554 54.5706 74 45.0301 74 34C74 18.536 58.7777 6 40 6C21.2223 6 6 18.536 6 34C6 49.464 21.2223 62 40 62C41.3436 62 42.6689 61.9358 43.9718 61.811L55 74V59.1348Z"/>
</mask>
<path d="M55 59.1348L54.2484 57.2813C53.4938 57.5874 53 58.3204 53 59.1348H55ZM43.9718 61.811L45.4549 60.4692C45.0309 60.0005 44.4102 59.7598 43.7811 59.8201L43.9718 61.811ZM55 74L53.5169 75.3418C54.0719 75.9552 54.9471 76.1636 55.719 75.8663C56.4908 75.5689 57 74.8271 57 74H55ZM72 34C72 44.0193 64.9494 52.942 54.2484 57.2813L55.7516 60.9882C67.5613 56.1992 76 46.041 76 34H72ZM40 8C58.0539 8 72 19.9863 72 34H76C76 17.0857 59.5015 4 40 4V8ZM8 34C8 19.9863 21.9461 8 40 8V4C20.4985 4 4 17.0857 4 34H8ZM40 60C21.9461 60 8 48.0137 8 34H4C4 50.9143 20.4985 64 40 64V60ZM43.7811 59.8201C42.5416 59.9389 41.2799 60 40 60V64C41.4073 64 42.7963 63.9328 44.1626 63.8019L43.7811 59.8201ZM56.4831 72.6582L45.4549 60.4692L42.4888 63.1528L53.5169 75.3418L56.4831 72.6582ZM53 59.1348V74H57V59.1348H53Z" fill="#82CC00" mask="url(#path-2-inside-1_1065_22281)"/>
<path d="M30.0001 44.0001C41.0457 44.0001 50.0001 35.0457 50.0001 24.0001C50.0001 21.0654 49.368 18.2783 48.2325 15.7676C55.1717 18.9058 60.0001 25.8891 60.0001 34.0001C60.0001 45.0457 51.0457 54.0001 40.0001 54.0001C31.8891 54.0001 24.9058 49.1717 21.7676 42.2325C24.2783 43.368 27.0654 44.0001 30.0001 44.0001Z" fill="#406400"/>
<path d="M30.0001 44.0001C41.0457 44.0001 50.0001 35.0457 50.0001 24.0001C50.0001 21.0654 49.368 18.2783 48.2325 15.7676C55.1717 18.9058 60.0001 25.8891 60.0001 34.0001C60.0001 45.0457 51.0457 54.0001 40.0001 54.0001C31.8891 54.0001 24.9058 49.1717 21.7676 42.2325C24.2783 43.368 27.0654 44.0001 30.0001 44.0001Z" fill="#2D4400"/>
<path d="M30 44C41.0457 44 50 35.0457 50 24C50 21.0653 49.3679 18.2782 48.2325 15.7675C45.7218 14.6321 42.9347 14 40 14C28.9543 14 20 22.9543 20 34C20 36.9347 20.6321 39.7218 21.7675 42.2325C24.2782 43.3679 27.0653 44 30 44Z" fill="#406400"/>
<path fill-rule="evenodd" clip-rule="evenodd" d="M40 54C51.0457 54 60 45.0459 60 34C60 22.9541 51.0457 14 40 14C28.9543 14 20 22.9541 20 34C20 45.0459 28.9543 54 40 54ZM44.3926 51.4602C51.9147 49.5739 57.5588 42.9543 57.9753 34.9508H48.99C48.8405 42.0508 47.025 48.1828 44.3926 51.4602ZM46.8896 34.9508C46.7812 39.8799 45.8363 44.2375 44.4338 47.3543C43.6861 49.0157 42.8498 50.2325 42.0281 51.0048C41.2154 51.7687 40.5325 52 40 52C39.4675 52 38.7846 51.7687 37.9719 51.0048C37.1502 50.2325 36.3139 49.0157 35.5662 47.3543C34.1637 44.2375 33.2188 39.8799 33.1104 34.9508H46.8896ZM48.99 33.0508H57.9754C57.5596 25.0466 51.9152 18.4262 44.3926 16.5398C47.0252 19.8174 48.8407 25.9501 48.99 33.0508ZM35.6074 16.5398C28.0848 18.4262 22.4404 25.0466 22.0246 33.0508H31.01C31.1593 25.9501 32.9748 19.8174 35.6074 16.5398ZM33.1104 33.0508C33.2186 28.121 34.1635 23.7628 35.5662 20.6457C36.3139 18.9843 37.1502 17.7675 37.9719 16.9952C38.7846 16.2313 39.4675 16 40 16C40.5325 16 41.2154 16.2313 42.0281 16.9952C42.8498 17.7675 43.6861 18.9843 44.4338 20.6457C45.8365 23.7628 46.7814 28.121 46.8896 33.0508H33.1104ZM31.01 34.9508H22.0247C22.4412 42.9543 28.0853 49.5739 35.6074 51.4602C32.975 48.1828 31.1595 42.0508 31.01 34.9508Z" fill="#82CC00"/>
<path fill-rule="evenodd" clip-rule="evenodd" d="M60.0003 34C60.0003 45.0458 51.0459 54 40.0003 54C29.645 54 21.1277 46.1301 20.1035 36.0449C20.3255 38.2306 20.8994 40.3123 21.7678 42.2324C22.6638 42.6376 23.595 42.9787 24.5555 43.2499C26.975 47.281 30.9279 50.2866 35.6077 51.4602C34.176 49.6777 32.9859 47.0509 32.1741 43.8832C32.8777 43.8071 33.5703 43.6946 34.2501 43.5475C34.6182 44.9558 35.0628 46.235 35.5665 47.3542C36.3141 49.0157 37.1505 50.2324 37.9722 51.0048C38.7848 51.7686 39.4678 52 40.0003 52C40.5328 52 41.2157 51.7686 42.0283 51.0048C42.8501 50.2324 43.6864 49.0157 44.434 47.3542C45.8366 44.2375 46.7815 39.8798 46.8898 34.9507H46.7386C47.6144 33.6147 48.3346 32.1675 48.8734 30.6349C48.9337 31.4253 48.9731 32.2316 48.9903 33.0507H57.9757C57.6556 26.8898 54.2378 21.5487 49.2502 18.5552C48.979 17.5947 48.6379 16.6635 48.2327 15.7675C47.0974 15.254 45.9056 14.8435 44.6692 14.5479C53.4628 16.6508 60.0003 24.5618 60.0003 34ZM57.9756 34.9507C57.5591 42.9542 51.9149 49.5739 44.3929 51.4602C47.0253 48.1828 48.8407 42.0507 48.9903 34.9507H57.9756Z" fill="#5C9100"/>
</svg>
